<svg width="59" height="76" viewBox="0 0 59 76" fill="none" xmlns="http://www.w3.org/2000/svg">
<path d="M1.37476 12.2495C0.874756 11.2495 0.624756 10.3328 0.624756 9.49951C0.624756 8.08285 1.08309 6.91618 1.99976 5.99951C2.91642 4.99951 4.08309 4.49951 5.49976 4.49951C6.24976 4.49951 7.04142 4.66618 7.87476 4.99951C8.70809 5.33285 9.45809 5.91618 10.1248 6.74951C12.8748 10.6662 15.4998 14.4162 17.9998 17.9995C20.5831 21.5828 23.1248 24.9578 25.6248 28.1245L31.1248 19.7495C32.1248 18.2495 33.3748 16.3745 34.8748 14.1245C36.4581 11.8745 38.0831 9.74951 39.7498 7.74951C41.4164 5.66618 43.0831 3.87451 44.7498 2.37451C46.4164 0.874512 47.8748 0.124512 49.1248 0.124512C50.3748 0.124512 51.4998 0.624512 52.4998 1.62451C53.4998 2.54118 53.9998 3.58285 53.9998 4.74951C53.9998 6.16618 53.4998 7.54118 52.4998 8.87451C48.4998 13.3745 44.7914 17.9578 41.3748 22.6245C38.0414 27.2912 35.0414 31.9578 32.3748 36.6245L47.4998 54.4995C48.1664 55.2495 49.0831 56.2495 50.2498 57.4995C51.4998 58.6662 52.7081 59.9578 53.8748 61.3745C55.0414 62.7912 56.0414 64.2912 56.8748 65.8745C57.7914 67.4578 58.2498 68.9162 58.2498 70.2495C58.2498 71.9162 57.7081 73.1662 56.6248 73.9995C55.6248 74.8328 54.5831 75.2495 53.4998 75.2495C52.7498 75.1662 52.0414 74.9578 51.3748 74.6245C50.7914 74.3745 50.1664 73.7495 49.4998 72.7495L47.9998 70.6245C47.2498 69.6245 46.5414 68.7495 45.8748 67.9995C45.2914 67.2495 44.8331 66.5412 44.4998 65.8745L40.3748 60.7495C38.5414 58.8328 36.9581 57.2078 35.6248 55.8745C34.2914 54.5412 32.9998 53.1245 31.7498 51.6245L26.9998 45.9995C26.3331 47.1662 25.4581 48.7912 24.3748 50.8745C23.2914 52.8745 22.0831 55.0828 20.7498 57.4995C19.4998 59.8328 18.1664 62.1662 16.7498 64.4995C15.3331 66.7495 13.9581 68.6245 12.6248 70.1245C11.4581 70.7078 10.3748 70.9995 9.37476 70.9995C7.95809 70.9995 6.74976 70.5412 5.74976 69.6245C4.83309 68.6245 4.37476 67.4578 4.37476 66.1245C4.37476 64.7912 5.24976 62.9162 6.99976 60.4995C8.83309 58.0828 10.8748 54.8328 13.1248 50.7495C15.2914 46.7495 16.8748 43.6245 17.8748 41.3745C18.9581 39.1245 19.7081 37.7912 20.1248 37.3745C16.8748 33.5412 13.6664 29.4995 10.4998 25.2495C7.41642 20.9995 4.37476 16.6662 1.37476 12.2495Z" fill="#FF5733"/>
</svg>
