<svg width="42" height="62" viewBox="0 0 42 62" fill="none" xmlns="http://www.w3.org/2000/svg">
<path d="M9.25 9.75C8.08333 8.41667 7.5 7.125 7.5 5.875C7.5 4.45833 7.91667 3.25 8.75 2.25C9.66667 1.25 10.8333 0.75 12.25 0.75C13.3333 0.75 14.4167 1.08333 15.5 1.75C16.5833 2.33333 17.5833 3.08333 18.5 4C19.4167 4.83333 20.2083 5.66667 20.875 6.5C21.5417 7.33333 21.9583 7.91667 22.125 8.25C22.2917 8.16667 22.6667 8.125 23.25 8.125C24.8333 8.125 26.3333 8.54167 27.75 9.375C29.25 10.125 30.5833 11.125 31.75 12.375C33 13.625 34.0833 14.9583 35 16.375C35.9167 17.7917 36.7083 19.125 37.375 20.375C38.0417 21.625 38.625 23 39.125 24.5C39.7083 25.9167 40.1667 27.375 40.5 28.875C40.8333 30.375 41.0833 31.8333 41.25 33.25C41.4167 34.6667 41.5 35.9583 41.5 37.125C41.5 40.5417 41.0417 43.75 40.125 46.75C39.2917 49.6667 37.875 52.25 35.875 54.5C33.9583 56.75 31.4167 58.5 28.25 59.75C25.0833 61.0833 21.2083 61.75 16.625 61.75C13.2917 61.75 10.5417 60.75 8.375 58.75C6.29167 56.75 4.66667 54.4167 3.5 51.75C2.33333 49 1.5 46.2083 1 43.375C0.583333 40.5417 0.375 38.25 0.375 36.5C0.375 34.8333 0.583333 33.2083 1 31.625C1.41667 30.0417 1.95833 28.5833 2.625 27.25C3.29167 25.8333 3.95833 24.5833 4.625 23.5C5.375 22.4167 6.08333 21.5 6.75 20.75L13 13.375C12.9167 13.0417 12.625 12.6667 12.125 12.25C11.7083 11.75 11.2917 11.2917 10.875 10.875L9.25 9.75ZM21.875 17.75L21.375 18.5C20.375 19.75 19.25 21.0417 18 22.375C16.8333 23.7083 15.7083 25.0833 14.625 26.5C13.5417 27.9167 12.625 29.4583 11.875 31.125C11.125 32.7917 10.75 34.625 10.75 36.625C10.75 38.4583 10.875 40.2917 11.125 42.125C11.4583 43.875 11.875 45.4583 12.375 46.875C12.9583 48.2917 13.6667 49.4583 14.5 50.375C15.3333 51.2083 16.2917 51.625 17.375 51.625C18.2917 51.625 19.2083 51.5417 20.125 51.375C21.125 51.2083 22 51.0417 22.75 50.875L27.25 48.625C27.5 48.2917 27.9167 47.875 28.5 47.375C29.0833 46.7917 29.5417 46.2083 29.875 45.625C30.625 42.875 31 40.1667 31 37.5C31 34 30.4167 30.6667 29.25 27.5C28.0833 24.25 26.2917 21.2917 23.875 18.625L22.375 17.875H22.25C22.0833 17.875 21.9583 17.8333 21.875 17.75Z" fill="#00BCD4"/>
</svg>
