<svg width="46" height="58" viewBox="0 0 46 58" fill="none" xmlns="http://www.w3.org/2000/svg">
<path d="M1.24976 12.9995C0.749756 11.9995 0.499756 10.9995 0.499756 9.99951C0.499756 8.74951 0.958089 7.66618 1.87476 6.74951C2.87476 5.74951 4.04142 5.24951 5.37476 5.24951C6.54142 5.24951 7.74976 5.62451 8.99976 6.37451C11.4164 9.04118 13.7081 11.5828 15.8748 13.9995C18.0414 16.4162 20.1248 18.7078 22.1248 20.8745C22.8748 19.6245 23.9164 17.9162 25.2498 15.7495C26.5831 13.4995 27.9998 11.2912 29.4998 9.12451C31.0831 6.87451 32.6664 4.95785 34.2498 3.37451C35.8331 1.70785 37.2498 0.874512 38.4998 0.874512C39.7498 0.874512 40.8748 1.24951 41.8748 1.99951C42.9581 2.74951 43.4998 3.95785 43.4998 5.62451C43.4998 6.70785 43.3331 7.62451 42.9998 8.37451C40.5831 11.5412 38.2498 14.7912 35.9998 18.1245C33.8331 21.3745 31.7081 24.6662 29.6248 27.9995L29.2498 28.4995C31.6664 31.0828 34.1248 33.9162 36.6248 36.9995C39.2081 40.0828 41.9164 43.4995 44.7498 47.2495C45.5831 48.4162 45.9998 49.5412 45.9998 50.6245C45.9998 52.0412 45.4581 53.2078 44.3748 54.1245C43.3748 55.0412 42.2081 55.4995 40.8748 55.4995C39.8748 55.4995 38.6248 54.7912 37.1248 53.3745C35.6248 51.9578 34.0831 50.2912 32.4998 48.3745C30.9164 46.4578 29.3748 44.4995 27.8748 42.4995C26.3748 40.4162 25.1248 38.7912 24.1248 37.6245C23.2081 39.2912 22.0414 41.2912 20.6248 43.6245C19.2914 45.8745 17.7914 48.0828 16.1248 50.2495C14.5414 52.4162 12.8748 54.2495 11.1248 55.7495C9.37476 57.2495 7.70809 57.9995 6.12476 57.9995C5.04142 57.9995 3.99976 57.5412 2.99976 56.6245C1.99976 55.6245 1.49976 54.4995 1.49976 53.2495C1.49976 51.7495 2.24976 50.2912 3.74976 48.8745C4.83309 48.1245 5.99976 46.9995 7.24976 45.4995C8.49976 43.9162 9.70809 42.2495 10.8748 40.4995C12.0414 38.6662 13.1248 36.8328 14.1248 34.9995C15.2081 33.0828 16.1248 31.3745 16.8748 29.8745L1.24976 12.9995Z" fill="#FF5733"/>
</svg>
